<svg width="24" height="24" xmlns="http://www.w3.org/2000/svg">
 <g>
  <title>Layer 1</title>
  <path d="m140,331c0,-1 0,-2 0,-3c0,-1 0,-4 0,-9c0,-4 -0.49622,-9.01761 0,-16c0.50127,-7.05328 2.49937,-14.96262 3,-25c0.39851,-7.99008 1,-19 2,-30c1,-11 3,-25 6,-38c3,-13 6.48125,-25.88985 9,-38c2.47726,-11.91063 3.52274,-21.08937 6,-33c1.67917,-8.07344 4,-16 6,-22c1,-3 2,-5 2,-6c0,-1 -0.22975,-1.97325 0,-1c0.51375,2.17625 1.30649,7.04833 2,12c1.00977,7.20975 3,14 5,24c2,10 4.52274,22.08937 7,34c2.51875,12.11015 6.57599,23.80731 10,35c3.61844,11.82823 7,23 11,34c4,11 7.17043,21.92618 11,31c4.18787,9.92279 6.56123,18.14053 9,25c2.55121,7.17575 5,13 7,17c2,4 3,7 4,9c1,2 1.49756,1.07422 2,-4c0.19708,-1.99026 0.88133,-7.02521 2,-12c1.80911,-8.04532 4.08778,-15.98285 6,-26c2.09641,-10.98203 5,-22 7,-34c2,-12 4,-25 7,-39c3,-14 6.90799,-28.02661 11,-42c2.93414,-10.01952 6.09586,-23.97923 8,-33c2.10626,-9.97816 3.99246,-18.81557 5,-27c0.73309,-5.95505 1,-11 1,-15c0,-2 0,-5 0,-6c0,-1 -1,-2 -1,-3l-1,0" id="svg_4" stroke="#000" fill="none"/>
  <path d="m295,219c1,-1 1.14429,-2.93414 2,-5c1.21014,-2.92157 2.78986,-7.07843 4,-10c1.71143,-4.13171 3.16797,-6.92033 5,-11c2.20605,-4.91257 3.60703,-9.17572 6,-14c2.59106,-5.22363 5.40619,-10.78304 9,-18c3.39478,-6.81729 7.20889,-13.86588 11,-20c4.23859,-6.85817 8.07858,-11.93813 12,-17c3.0621,-3.95265 6.9183,-8.11214 11,-11c2.94336,-2.08247 5.86829,-4.28859 10,-6c2.92157,-1.21015 6,-1 10,-1c5,0 9.98453,0.08074 15,1c5.98309,1.0966 11.88138,3.2935 19,6c5.91171,2.24763 12,5 18,8c8,4 14.04025,8.95021 19,13c6.04968,4.93976 11.51532,9.52556 17,16c5.56033,6.56375 10.07355,13.24849 14,20c4.29532,7.3858 6.84842,15.0451 9,22c2.80377,9.06305 5.99246,15.81557 7,24c0.85529,6.94756 1,13 1,20c0,7 -1.75238,14.0883 -4,20c-2.70651,7.11862 -4.8819,12.07278 -8,17c-3.85614,6.09344 -7.47232,11.47232 -12,16c-4.52768,4.52768 -8.74283,8.34457 -14,12c-4.78738,3.3288 -9.70251,6.56351 -15,9c-5.74594,2.64276 -10,4 -16,6c-6,2 -11.11237,3.54706 -16,5c-5.16193,1.53448 -10,3 -15,3c-5,0 -9,0 -14,0c-3,0 -6.80902,-1.32144 -10,-3c-4.76599,-2.50705 -8.13202,-3.75531 -12,-6c-3.11847,-1.80972 -6.79489,-5.22021 -10,-8c-3.77728,-3.276 -7,-5 -10,-8c-3,-3 -5.20682,-5.81265 -7,-8c-2.28589,-2.78833 -3.11588,-4.96384 -4,-8c-1.15277,-3.95868 -1.84723,-7.04132 -3,-11c-0.88412,-3.03616 -2.09543,-7.97736 -3,-12c-1.11865,-4.97479 -1.88135,-8.02521 -3,-13c-0.90457,-4.02266 -2,-8 -3,-11c-1,-3 -1.48627,-5.82375 -2,-8c-0.68927,-2.91975 0,-5 0,-7c0,-3 0,-5 0,-8c0,-2 0,-5 0,-7c0,-3 0.49347,-4.87856 1,-8c0.48056,-2.96126 0.35928,-6.05165 1,-10c0.50653,-3.12144 1.51944,-7.03874 2,-10c0.50653,-3.12144 1,-6 2,-8l1,-2l1,-1l1,-1" id="svg_5" stroke="#000" fill="none"/>
  <path d="m505,119c0,-1 1.02676,-0.77025 2,-1c2.17624,-0.51374 3.87857,-1.49346 7,-2c2.96124,-0.48055 6.00757,-0.78733 9,-1c7.05328,-0.50126 7.87854,-1.49346 11,-2c3.94836,-0.64073 8.02997,-0.51127 12,-1c4.09222,-0.50378 8,-1 11,-2c3,-1 6.87854,-1.49346 10,-2c2.96124,-0.48055 6.08026,-0.31074 9,-1c2.17627,-0.51374 5,-1 7,-1c2,0 4.82373,-0.48626 7,-1c0.97327,-0.22975 3,0 5,0c2,0 3.05353,0.4595 5,0c2.17627,-0.51374 4.15222,-0.23463 6,-1c1.30658,-0.5412 4.69342,-1.4588 6,-2c0.92389,-0.38268 2,0 3,0c1,0 2,0 2,-1c0,-1 -1.29291,0.29289 -2,1c-0.70709,0.70711 -2,0 -3,0c-1,0 -1,1 -2,1c-1,0 -2,0 -3,0c-1,0 -2,0 -3,0c-1,0 -2,0 -3,0c-1,0 -2,0 -3,0c-1,0 -1.29291,-0.29289 -2,-1c-0.70709,-0.70711 -3,0 -4,0c-1,0 -2,0 -3,0c-1,0 -2,0 -3,0c-1,0 -2,0 -3,0c-1,0 -2.07611,-0.38268 -3,0c-1.30658,0.5412 -2.07611,0.61732 -3,1c-1.30658,0.5412 -2.07611,0.61732 -3,1c-1.30658,0.5412 -2,1 -3,1c-1,0 -1,1 -2,1c-1,0 -1.69342,0.4588 -3,1c-0.92389,0.38268 -2.29291,-0.70711 -3,0c-0.70709,0.70711 -1,1 -2,1c-1,0 -2,1 -3,1c-1,0 -1,1 -1,2c0,1 -0.45953,2.0535 0,4c0.51373,2.17625 1.75562,5.01498 2,7c0.50378,4.09222 1.84723,7.04132 3,11c0.88416,3.03616 2.11584,7.96384 3,11c1.15277,3.95868 2,8 3,12c1,4 1,8 2,12c1,4 1.50732,9.02434 2,14c0.50244,5.0742 2.49756,9.9258 3,15c0.49268,4.97566 1,10 2,15c1,5 0.50732,8.02434 1,13c0.50244,5.0742 0.51129,8.02997 1,12c0.50378,4.09221 1,7 1,10c0,3 0,6 0,8c0,2 0,5 0,8c0,3 -1,5 -1,8c0,3 0,5 0,8c0,3 0,5 0,7c0,2 0,3 0,4c0,1 0,2 0,3c0,1 0,2 0,3l0,1l0,1" id="svg_7" stroke="#000" fill="none"/>
  <path d="m663,120c0,-1 1.02582,-0.67963 3,-1c3.12146,-0.50654 5.97736,-1.09544 10,-2c4.97479,-1.11866 8.92578,-1.49755 14,-2c5.97083,-0.59122 12,-1 17,-1c6,0 11,-1 16,-1c4,0 8,-1 11,-1l2,0l2,-1l1,0" id="svg_8" stroke="#000" fill="none"/>
  <path d="m677,189c1,0 2,0 3,0c1,0 3.03876,-0.51945 6,-1c3.12146,-0.50655 5.92578,-1.49756 11,-2c3.98053,-0.39415 9,-1 14,-1c6,0 11.03748,-0.38908 16,-1c4.09222,-0.50377 9.04132,-0.84723 13,-2c3.03619,-0.88414 6.07843,-0.78986 9,-2c2.06586,-0.85571 3.69342,-2.4588 5,-3c0.92389,-0.38269 2,-1 2,-2l0,-1" id="svg_9" stroke="#000" fill="none"/>
  <path d="m670,266c1,0 2,0 3,0c1,0 2,0 3,0c2,0 4,0 6,0c3,0 5,0 7,0c2,0 4,0 6,0c2,0 4,1 6,1c3,0 5,0 7,0c3,0 6,0 8,0c3,0 6,0 9,0c4,0 7,0 10,0c4,0 5.87854,-0.49347 9,-1c1.97418,-0.32037 3.82373,-1.48627 6,-2c0.97327,-0.22977 2.29291,-0.29291 3,-1c0.70709,-0.70709 1.29291,-0.29291 2,-1c0.70709,-0.70709 1,-1 1,-2l1,0l1,-1" id="svg_10" stroke="#000" fill="none"/>
  <path d="m667,118c0,1 0,2 0,3c0,1 0,2 0,3c0,1 0,2 0,4c0,2 0,4 0,6c0,2 0,5 0,7c0,2 1,4 1,6c0,2 1,4 1,5c0,2 1,4 1,5c0,2 0.23462,4.15224 1,6c0.5412,1.30656 1,3 1,4c0,2 1,3 1,5c0,2 1,4 1,5c0,2 1,4 1,6c0,2 1,3 1,5c0,1 0.54047,3.0535 1,5c0.51373,2.17625 1,3 1,5c0,1 0.4588,2.69344 1,4c0.76538,1.84776 -0.32037,4.02582 0,6c0.50653,3.12144 1,4 1,6c0,2 0,4 0,5c0,2 0.4588,3.69344 1,5c0.76538,1.84776 0,3 0,4c0,2 0,3 0,5c0,1 0,2 0,3c0,1 0,2 0,3c0,2 0,3 0,4c0,1 0.76538,2.15224 0,4c-0.5412,1.30656 -1,2 -1,3c0,1 0.70709,2.29289 0,3c-0.70709,0.70711 -1,1 -1,2c0,1 0.38269,2.07611 0,3c-0.5412,1.30655 -1,2 -1,3c0,1 0,2 -1,3l0,1l0,1" id="svg_11" stroke="#000" fill="none"/>
  <polyline stroke-linecap="round" id="svg_12" points="1036,12 1035,12 " stroke="#000" fill="none"/>
  <path d="m1081,89c0,-1 0,-2 0,-3c0,-1 0,-2 0,-3l0,-1l0,-2" id="svg_13" stroke="#000" fill="none"/>
  <path d="m4.57143,18.71428c0,-0.14286 0,-0.14286 0,-0.28572c0,-0.28571 0,-0.42857 0,-0.57143c0,-0.42857 0,-0.42857 0,-0.85714c0,-0.14286 0,-0.28572 0,-0.71429c0,-0.42857 0,-0.57143 0,-1.14286c0,-0.42857 0,-0.57143 0,-1.14286c0,-0.42857 0,-0.71429 0,-1.14286c0,-0.57143 0,-1 0,-1.28571c0,-0.42857 0,-1 0,-1.42857c0,-0.14286 0,-0.57143 0,-0.71429c0,-0.14286 0,-0.57143 0,-0.57143c0,-0.14286 0,-0.42857 0,-0.57143c0,-0.14286 0,-0.42857 0,-0.57143c0,0 -0.10102,-0.47041 0,-0.57143c0.10102,-0.10102 0.14286,-0.14286 0.14286,-0.42857c0,-0.14286 0,-0.14286 0,-0.28571c0,-0.28571 0,-0.42857 0.14286,-0.42857c0,0 0,-0.14286 0,-0.42857c0,-0.14286 0,-0.14286 0,-0.14286c0,-0.14286 -0.10102,-0.47041 0,-0.57143c0.20203,-0.20203 0.28571,0 0.28571,-0.14286c0,-0.28571 0.14286,-0.28571 0.14286,-0.42857c0,0 0.14286,0 0.14286,-0.14286c0,0 0.08368,-0.08368 0.28571,-0.28571c0.10102,-0.10102 0.28571,0 0.28571,0c0.28571,0 0.42857,0 0.57143,0c0,0 0.28571,0 0.57143,0c0.28571,0 0.42857,0 0.57143,0c0.42857,0 0.57143,0 1,0c0.42857,0 0.57143,0 0.71429,0c0.42857,0 0.57143,0 0.85714,0c0.28571,0 0.28571,0 0.71429,0c0.14286,0 0.42857,0 0.57143,0c0.14286,0 0.42857,0 0.57143,0c0.14286,0 0.14286,0 0.42857,0c0.14286,0 0.28571,0 0.28571,0c0.28571,0 0.42857,0 0.57143,0c0,0 0.28571,0 0.42857,0c0.14286,0 0.22654,-0.20203 0.42857,0c0.10102,0.10102 0.14286,0.14286 0.28571,0.14286c0,0 0.28571,0.14286 0.42857,0.14286c0.14286,0 0.14286,0 0.42857,0c0.14286,0 0.28571,0 0.28571,0c0.28571,0 0.28571,0.14286 0.42857,0.14286c0.14286,0 0.14286,0 0.42857,0c0.14286,0 0.28572,0 0.28572,0c0,0.14286 0.28572,0.14286 0.42857,0.14286c0.14286,0 0.22654,-0.20203 0.42857,0c0.10102,0.10102 0.14286,0.14286 0.28571,0.14286c0,0 0,0.14286 0.28572,0.14286c0.14286,0 0.28571,0 0.28571,0c0,0.14286 0.23105,0.15373 0.28572,0.28571c0.07731,0.18665 0.04184,0.32756 0.14286,0.42857c0.10102,0.10102 0.14286,0.14286 0.14286,0.28571c0,0.14286 0.25289,0.28954 0.28571,0.42857c0.07339,0.31089 0.14286,0.42857 0.28572,0.57143c0,0 0.11777,0.01399 0.28571,0.28571c0.0751,0.12152 0.04184,0.1847 0.14286,0.28571c0.10102,0.10102 0.14286,0.14286 0.14286,0.28571c0,0.14286 -0.0751,0.30705 0,0.42857c0.16794,0.27173 0.28571,0.28571 0.28571,0.42857c0,0.14286 -0.08819,0.15373 -0.14286,0.28571c-0.07731,0.18665 -0.14286,0.28571 -0.14286,0.28571c0,0.14286 -0.35126,0.38478 -0.42857,0.57143c-0.05467,0.13198 -0.14286,0.42857 -0.14286,0.57143c0,0.28571 0,0.42857 0,0.71429c0,0.28571 -0.13109,0.34098 -0.28572,0.71429c-0.05467,0.13198 0,0.42857 0,0.57143c0,0.28571 0,0.42857 0,0.71429c0,0.28571 0,0.57143 0,0.85714c0,0.14286 0,0.42857 0,0.71429c0,0.14286 0,0.42857 0,0.57143c0,0.14286 0,0.28571 0,0.42857c0,0.14286 0,0.28571 0,0.42857c0,0.14286 0,0.28571 0,0.42857c0,0.14286 0.06554,0.24192 0.14286,0.42857c0.05467,0.13198 0,0.28572 0,0.42857c0,0.14286 0,0.28571 0,0.42857c0,0.14286 0.14286,0.14286 0.14286,0.28571c0,0.14286 0,0.28572 0,0.42857c0,0.14286 0,0.28572 0,0.42857c0,0.14286 0,0.28572 0,0.42857c0,0 0,0.14286 0,0.28571c0,0.14286 0,0.28572 0,0.42857c0,0 -0.28572,0 -0.42857,0c-0.14286,0 -0.52763,-0.06554 -0.71429,-0.14286c-0.39595,-0.16401 -0.85714,0 -1.14286,0c-0.28571,0 -0.57143,-0.14286 -1,-0.14286c-0.14286,0 -0.57143,-0.28572 -0.71429,-0.28572c-0.42857,0 -0.55408,-0.07049 -1,-0.14286c-0.14101,-0.02288 -0.57143,0 -0.71429,0c-0.42857,0 -0.57143,0 -1,0c-0.14286,0 -0.57143,0 -0.71428,0c-0.28572,0 -0.54625,-0.06947 -0.85714,-0.14286c-0.13904,-0.03282 -0.28571,0 -0.57143,0c-0.14286,0 -0.28571,0 -0.28571,0c-0.28571,0 -0.42857,0 -0.57143,0c0,0 -0.42857,0 -0.57143,0c0,0 -0.42857,0 -0.57143,0c-0.42857,0 -0.57143,0 -0.85714,0c-0.28571,0 -0.57143,0 -0.85714,0c0,0 -0.42857,0 -0.57143,0c-0.28571,0 -0.57143,0 -0.57143,0c-0.42857,0 -0.57143,0 -0.57143,0c-0.28571,0 -0.57143,0 -0.85714,0c-0.14286,0 -0.28571,0 -0.57143,0l-0.14286,0l-0.14286,0l0,0" id="svg_14" stroke="#e5e5e5" fill="none"/>
  <path d="m17.71428,4.85714c0,0 0,0 0,0c-0.14286,0.14286 -0.28572,0.28571 -0.28572,0.42857c0,0 -0.08368,-0.05917 -0.28571,0.14286c-0.10102,0.10102 -0.04184,0.1847 -0.14286,0.28571c-0.10102,0.10102 -0.14286,0.14286 -0.14286,0.14286c0,0.14286 -0.23105,0.15373 -0.28572,0.28571c-0.07731,0.18665 -0.28571,0.28571 -0.28571,0.42857c0,0 -0.08368,-0.05917 -0.28572,0.14286c-0.10102,0.10102 -0.04184,0.1847 -0.14286,0.28571c-0.10102,0.10102 -0.14286,0.28571 -0.14286,0.42857c0,0 0.10102,0.1847 0,0.28571c-0.20203,0.20203 -0.1847,0.1847 -0.28571,0.28571c-0.10102,0.10101 -0.14286,0.14286 -0.14286,0.28571c0,0.14286 0.14286,0.14286 0.28571,0.14286c0.14286,0 0.16461,-0.10934 0.42857,0c0.18665,0.07731 0.28572,0.14286 0.28572,0.14286c0.28571,0 0.42857,0 0.57143,0c0,0 0.28572,0 0.42857,0c0.14286,0 0.14286,0 0.42857,0c0.14286,0 0.28571,0 0.28571,0c0.28572,0 0.42857,0 0.57143,0c0,0 0.28572,0 0.42857,0c0.14286,0 0.14286,0 0.42857,0c0.14286,0 0.28572,0 0.28572,0l0.28571,0" id="svg_15" stroke="#e5e5e5" fill="none"/>
  <path d="m14.42857,14.71428c0,0 0,0 0.14286,0c0,0 0.28571,0 0.42857,0c0.14286,0 0.14286,0 0.42857,0c0.14286,0 0.28571,0 0.57143,0c0.14286,0 0.28572,0 0.28572,0c0.28571,0 0.42857,0 0.57143,0c0,0 0,0.14286 0.28572,0.14286c0.14286,0 0.28571,0 0.28571,0c0.28572,0 0.42857,0 0.57143,0c0,0 0.28572,0 0.42857,0l0.14286,0" id="svg_16" stroke="#e5e5e5" fill="none"/>
  <path d="m16.57143,11.85714c0,0 -0.10102,0.1847 0,0.28571c0.10102,0.10102 0.14286,0.14286 0.14286,0.28571c0,0.14286 0,0.28571 0,0.42857c0,0.14286 0,0.28571 0,0.42857c0,0.14286 0,0.28572 0,0.42857c0,0.14286 -0.14286,0.14286 -0.14286,0.28571c0,0.14286 0,0.28571 0,0.42857c0,0.14286 0,0.28571 0,0.42857c0,0.14286 0,0.28571 0,0.42857c0,0.14286 0,0.28572 0,0.42857c0,0.14286 0,0.28571 0,0.42857c0,0.14286 0,0.28571 0,0.42857c0,0.14286 0,0.28571 0,0.42857l0,0.14286l0,0.14286l0,0.14286" id="svg_17" stroke="#e5e5e5" fill="none"/>
 </g>

</svg>